# Blender v3.2.2 OBJ File: ''
# www.blender.org
mtllib WXSA-250-M-10-Finger.mtl
o WXSA-250-M-10-Finger
v -8.000000 4.262643 2.350757
v -9.549999 4.262643 2.350757
v -8.000000 4.952888 2.449999
v -9.549999 4.952888 2.449999
v -8.000000 5.643133 2.350757
v -9.549999 5.643133 2.350757
v -8.000000 6.277458 2.061071
v -9.549999 6.277458 2.061071
v -8.000000 6.804474 1.604408
v -9.549999 6.804474 1.604408
v -8.000000 7.181487 1.017766
v -9.549999 7.181487 1.017766
v -8.000000 7.377951 0.348671
v -9.549999 7.377951 0.348671
v -8.000000 7.377951 -0.348672
v -9.549999 7.377951 -0.348672
v -8.000000 7.181487 -1.017767
v -9.549999 7.181487 -1.017767
v -8.000000 6.804474 -1.604409
v -9.549999 6.804474 -1.604409
v -8.000000 6.277458 -2.061072
v -9.549999 6.277458 -2.061072
v -8.000000 5.643133 -2.350758
v -9.549999 5.643133 -2.350758
v -8.000000 4.952888 -2.450001
v -9.549999 4.952888 -2.450001
v -8.000000 4.262643 -2.350758
v -9.549999 4.262643 -2.350758
v -8.000000 3.628318 -2.061072
v -9.549999 3.628318 -2.061072
v -8.000000 3.101302 -1.604409
v -9.549999 3.101302 -1.604409
v -8.000000 2.724290 -1.017767
v -9.549999 2.724290 -1.017767
v -8.000000 2.527826 -0.348672
v -9.549999 2.527826 -0.348672
v -8.000000 2.527826 0.348671
v -9.549999 2.527826 0.348671
v -8.000000 2.724290 1.017766
v -9.549999 2.724290 1.017766
v -8.000000 3.101302 1.604408
v -9.549999 3.101302 1.604408
v -8.000000 3.628318 2.061071
v -9.549999 3.628318 2.061071
v -12.000000 8.952888 7.000000
v -12.000000 8.952888 5.000000
v -12.000000 0.962927 7.000000
v -12.000000 8.952888 -5.000000
v -12.000000 0.962927 -7.000000
v -12.000000 8.952888 -7.000000
v -12.000000 13.952888 5.000000
v -12.000000 13.952888 -5.000000
v -12.000000 0.952888 -7.013560
v -12.000000 0.952888 7.013559
v 5.000000 13.952888 -14.500001
v 1.900000 13.952888 -10.000000
v 5.000000 13.952888 -5.000000
v 1.807007 13.952888 -9.412868
v 1.537132 13.952888 -8.883208
v -12.000000 13.952888 -14.500001
v -0.587132 13.952888 -11.807008
v -0.000000 13.952888 -11.900000
v 0.587132 13.952888 -11.807008
v -42.310795 13.952888 -12.797147
v -16.000000 13.952888 -5.000000
v -1.900000 13.952888 -10.000000
v -1.807007 13.952888 -9.412868
v -5.000000 13.952888 -5.000000
v -1.537132 13.952888 -8.883208
v -1.116792 13.952888 -8.462868
v -0.587132 13.952888 -8.192992
v -0.000000 13.952888 -8.100000
v 0.587132 13.952888 -8.192992
v 1.116792 13.952888 -8.462868
v -43.150002 13.952888 -12.101140
v -16.000000 13.952888 5.000000
v -43.150002 13.952888 12.101139
v -42.310795 13.952888 12.797146
v -12.000000 13.952888 14.499999
v -1.900000 13.952888 10.000000
v -1.807007 13.952888 9.412868
v 5.000000 13.952888 14.499999
v -0.587132 13.952888 11.807008
v -1.116792 13.952888 11.537132
v -1.537132 13.952888 11.116792
v 5.000000 13.952888 5.000000
v 1.900000 13.952888 10.000000
v 1.807007 13.952888 10.587132
v 1.537132 13.952888 11.116792
v -5.000000 13.952888 5.000000
v -0.000000 13.952888 8.100000
v 0.587132 13.952888 8.192992
v 1.116792 13.952888 8.462868
v -1.537132 13.952888 8.883208
v 1.116792 13.952888 11.537132
v 0.587132 13.952888 11.807008
v -0.000000 13.952888 11.900000
v -1.807007 13.952888 10.587132
v -1.116792 13.952888 8.462868
v -0.587132 13.952888 8.192992
v 1.537132 13.952888 8.883208
v 1.807007 13.952888 9.412868
v -1.807007 13.952888 -10.587132
v -1.537132 13.952888 -11.116792
v -1.116792 13.952888 -11.537132
v 1.116792 13.952888 -11.537132
v 1.537132 13.952888 -11.116792
v 1.807007 13.952888 -10.587132
v 5.000000 9.952888 -5.000000
v 5.000000 9.952888 -14.500001
v 6.250000 9.952888 -14.499999
v 8.150000 9.952888 -12.599998
v 9.293885 9.952888 -4.650001
v 9.293885 9.952888 4.650000
v 12.150000 9.952888 4.650000
v 5.000000 9.952888 5.000000
v 8.150000 9.952888 12.599998
v 6.250000 9.952888 14.499999
v 5.000000 9.952888 14.499999
v 12.150000 9.952888 -4.650001
v 5.000000 -0.047112 5.000000
v -5.000000 -0.047112 5.000000
v -5.000000 -0.047112 -5.000000
v 5.000000 -0.047112 -5.000000
v 1.807007 16.000000 -9.412868
v 1.900000 16.000000 -10.000000
v 1.807007 16.000000 -10.587132
v 1.537132 16.000000 -8.883208
v 1.116792 16.000000 -8.462868
v 0.587132 16.000000 -8.192992
v -0.000000 16.000000 -8.100000
v -0.587132 16.000000 -8.192992
v -1.116792 16.000000 -8.462868
v -1.537132 16.000000 -8.883208
v -1.807007 16.000000 -9.412868
v -1.900000 16.000000 -10.000000
v -1.807007 16.000000 -10.587132
v -1.537132 16.000000 -11.116792
v -1.116792 16.000000 -11.537132
v -0.587132 16.000000 -11.807008
v -0.000000 16.000000 -11.900000
v 0.587132 16.000000 -11.807008
v 1.116792 16.000000 -11.537132
v 1.537132 16.000000 -11.116792
v 1.807007 16.000000 10.587132
v 1.900000 16.000000 10.000000
v 1.807007 16.000000 9.412868
v 1.537132 16.000000 11.116792
v 1.116792 16.000000 11.537132
v 0.587132 16.000000 11.807008
v -0.000000 16.000000 11.900000
v -0.587132 16.000000 11.807008
v -1.116792 16.000000 11.537132
v -1.537132 16.000000 11.116792
v -1.807007 16.000000 10.587132
v -1.900000 16.000000 10.000000
v -1.807007 16.000000 9.412868
v -1.537132 16.000000 8.883208
v -1.116792 16.000000 8.462868
v -0.587132 16.000000 8.192992
v -0.000000 16.000000 8.100000
v 0.587132 16.000000 8.192992
v 1.116792 16.000000 8.462868
v 1.537132 16.000000 8.883208
v -37.700348 5.996267 -8.063128
v -40.134911 8.952888 -7.927015
v -38.243778 5.084525 -9.033377
v -41.429096 8.952888 -8.855290
v -14.133863 0.370066 -10.382203
v -14.504773 1.452618 -9.368647
v -38.242908 5.083466 -9.034299
v -14.496102 1.459758 -9.360447
v -12.000000 -0.047112 -8.364309
v -11.000000 -0.047112 -7.154580
v -38.242908 5.083466 -10.521883
v -38.245106 5.086138 -10.523963
v -43.150002 11.042821 -10.248406
v -41.429096 8.952888 8.855289
v -43.150002 11.042821 10.248405
v -38.245106 5.086138 10.523962
v -38.243778 5.084525 9.033376
v -38.242908 5.083466 9.034297
v -38.242908 5.083466 10.521882
v -14.496102 8.952888 -9.360447
v -11.000000 -0.047112 7.154579
v -40.134911 8.952888 7.927014
v -37.700348 5.996267 8.063127
v -14.504773 1.452618 9.368645
v -14.133863 0.370066 10.382202
v -12.000000 -0.047112 8.364308
v -14.496102 1.459758 9.360446
v -12.000000 -0.047112 11.996202
v -16.000000 8.952888 -5.000000
v -16.000000 8.952888 5.000000
v -14.496102 8.952888 9.360446
v -12.000000 2.500070 14.499999
v -36.886539 7.365473 13.101879
v -9.549999 -0.047112 12.604668
v -9.549999 1.881061 14.499999
v -36.886539 7.365473 -13.101880
v -12.000000 2.500070 -14.500001
v -12.000000 -0.047112 -11.996203
v -9.549999 1.881061 -14.500001
v -9.549999 -0.047112 -12.604670
v 9.293885 -0.047112 4.650000
v 8.150000 -0.047112 12.599998
v 8.145331 -0.047112 12.604668
v 8.145329 -0.047112 -12.604669
v 8.150000 -0.047112 -12.599998
v 9.293885 -0.047112 -4.650001
v 12.150000 -0.047112 -4.650001
v 12.150000 -0.047112 4.650000
v 12.150000 8.952888 -5.650001
v 9.150000 8.952888 -5.650001
v 12.150000 8.952888 5.650000
v 12.150000 0.952888 -5.650001
v 12.150000 0.952888 5.650000
v 9.150000 8.952888 5.650000
v 9.150000 0.952888 -5.650001
v 9.150000 0.952888 5.650000
v 6.250000 1.881060 14.499999
v 6.250000 1.881059 -14.499999
vn 0.0000 0.1423 -0.9898
vn 0.0000 -0.1423 -0.9898
vn 0.0000 -0.4154 -0.9096
vn 0.0000 -0.6549 -0.7557
vn 0.0000 -0.8413 -0.5406
vn 0.0000 -0.9595 -0.2817
vn 0.0000 -1.0000 0.0000
vn 0.0000 -0.9595 0.2817
vn 0.0000 -0.8413 0.5406
vn 0.0000 -0.6549 0.7557
vn 0.0000 -0.4154 0.9096
vn 0.0000 -0.1423 0.9898
vn 0.0000 0.1423 0.9898
vn 0.0000 0.4154 0.9096
vn 0.0000 0.6549 0.7557
vn 0.0000 0.6549 0.7558
vn 0.0000 0.8413 0.5406
vn 0.0000 0.9595 0.2817
vn 0.0000 1.0000 0.0000
vn 0.0000 0.9595 -0.2817
vn 0.0000 0.8413 -0.5406
vn 0.0000 0.6549 -0.7557
vn 0.0000 0.4154 -0.9096
vn 1.0000 0.0000 0.0000
vn -1.0000 0.0000 0.0000
vn -1.0000 0.0001 0.0000
vn 0.0000 0.0000 -1.0000
vn 0.0000 0.0000 1.0000
vn 0.9877 0.0000 0.1564
vn 0.9877 0.0000 -0.1564
vn 0.8910 0.0000 -0.4540
vn 0.8910 0.0000 0.4540
vn 0.7071 0.0000 0.7071
vn 0.4540 0.0000 0.8910
vn 0.1564 0.0000 0.9877
vn -0.1564 0.0000 0.9877
vn -0.4540 0.0000 0.8910
vn -0.7071 0.0000 0.7071
vn -0.8910 0.0000 0.4540
vn -0.9877 0.0000 0.1564
vn -0.9877 0.0000 -0.1564
vn -0.8910 0.0000 -0.4540
vn -0.7071 0.0000 -0.7071
vn -0.4540 0.0000 -0.8910
vn -0.1564 0.0000 -0.9877
vn 0.1564 0.0000 -0.9877
vn 0.4540 0.0000 -0.8910
vn 0.7071 0.0000 -0.7071
vn -0.5177 -0.4595 0.7217
vn -0.0967 -0.6977 0.7098
vn -0.0960 -0.6980 0.7097
vn -0.5842 -0.6523 0.4829
vn -0.7727 -0.6348 0.0000
vn -0.7716 -0.6361 0.0000
vn -0.7720 -0.6357 -0.0000
vn -0.7724 -0.6352 -0.0000
vn -0.7723 -0.6352 0.0000
vn 0.0558 -0.0000 0.9984
vn -0.6871 0.0000 0.7266
vn -0.7071 -0.7071 0.0000
vn -0.5177 -0.4595 -0.7217
vn -0.5842 -0.6523 -0.4829
vn -0.0968 -0.6992 -0.7083
vn -0.0967 -0.6977 -0.7098
vn -0.0967 -0.6977 -0.7099
vn -0.1919 -0.9814 0.0000
vn -0.6871 0.0000 -0.7266
vn -0.1744 -0.6903 0.7022
vn -0.1744 -0.6900 0.7025
vn -0.5732 -0.4401 0.6912
vn -0.0561 -0.0000 0.9984
vn -0.5732 -0.4401 -0.6912
vn -0.1747 -0.6899 -0.7025
vn -0.1744 -0.6903 -0.7022
vn -0.0561 0.0000 -0.9984
vn 0.0558 0.0000 -0.9984
vn 0.0000 0.7071 -0.7071
vn 0.0000 0.7071 0.7071
vn 0.0000 -0.7071 -0.7071
vn 0.0000 -0.7071 0.7071
vn 0.9898 0.0000 -0.1424
vn 0.9898 -0.0000 0.1424
vn 0.7072 0.0000 0.7070
vn 0.0000 -0.7010 0.7132
vn 0.7070 0.0000 -0.7072
vn 0.0000 -0.7010 -0.7132
usemtl Material.027
s off
f 1//1 2//1 3//1
f 3//1 2//1 4//1
f 3//2 4//2 5//2
f 5//2 4//2 6//2
f 5//3 6//3 7//3
f 7//3 6//3 8//3
f 7//4 8//4 9//4
f 9//4 8//4 10//4
f 9//5 10//5 11//5
f 11//5 10//5 12//5
f 11//6 12//6 13//6
f 13//6 12//6 14//6
f 13//7 14//7 15//7
f 15//7 14//7 16//7
f 15//8 16//8 17//8
f 17//8 16//8 18//8
f 17//9 18//9 19//9
f 19//9 18//9 20//9
f 19//10 20//10 21//10
f 21//10 20//10 22//10
f 21//11 22//11 23//11
f 23//11 22//11 24//11
f 23//12 24//12 25//12
f 25//12 24//12 26//12
f 25//13 26//13 27//13
f 27//13 26//13 28//13
f 27//14 28//14 29//14
f 29//14 28//14 30//14
f 29//15 30//15 31//15
f 31//16 30//16 32//16
f 31//17 32//17 33//17
f 33//17 32//17 34//17
f 33//18 34//18 35//18
f 35//18 34//18 36//18
f 35//19 36//19 37//19
f 37//19 36//19 38//19
f 37//20 38//20 39//20
f 39//20 38//20 40//20
f 39//21 40//21 41//21
f 41//21 40//21 42//21
f 41//22 42//22 43//22
f 43//22 42//22 44//22
f 43//23 44//23 1//23
f 1//23 44//23 2//23
f 2//24 28//24 4//24
f 4//24 28//24 26//24
f 4//24 26//24 6//24
f 6//24 26//24 24//24
f 6//24 24//24 8//24
f 8//24 24//24 22//24
f 8//24 22//24 10//24
f 10//24 22//24 20//24
f 10//24 20//24 12//24
f 12//24 20//24 18//24
f 12//24 18//24 14//24
f 14//24 18//24 16//24
f 28//24 2//24 30//24
f 30//24 2//24 44//24
f 30//24 44//24 32//24
f 32//24 44//24 42//24
f 32//24 42//24 34//24
f 34//24 42//24 40//24
f 34//24 40//24 36//24
f 36//24 40//24 38//24
f 5//25 23//25 3//25
f 3//25 23//25 25//25
f 3//25 25//25 1//25
f 1//25 25//25 27//25
f 1//25 27//25 43//25
f 43//25 27//25 29//25
f 43//25 29//25 41//25
f 41//25 29//25 31//25
f 41//25 31//25 39//25
f 39//25 31//25 33//25
f 39//25 33//25 37//25
f 37//25 33//25 35//25
f 23//25 5//25 21//25
f 21//25 5//25 7//25
f 21//25 7//25 19//25
f 19//25 7//25 9//25
f 19//25 9//25 17//25
f 17//25 9//25 11//25
f 17//25 11//25 15//25
f 15//25 11//25 13//25
f 45//25 46//25 47//25
f 47//25 46//25 48//25
f 47//25 48//25 49//25
f 49//25 48//25 50//25
f 51//25 52//25 46//25
f 46//25 52//25 48//25
f 53//25 54//25 49//25
f 49//26 54//26 47//26
f 55//19 56//19 57//19
f 57//19 56//19 58//19
f 57//19 58//19 59//19
f 60//19 61//19 55//19
f 55//19 61//19 62//19
f 55//19 62//19 63//19
f 64//19 65//19 60//19
f 60//19 65//19 52//19
f 60//19 52//19 66//19
f 66//19 52//19 67//19
f 67//19 52//19 68//19
f 67//19 68//19 69//19
f 69//19 68//19 70//19
f 70//19 68//19 71//19
f 71//19 68//19 72//19
f 72//19 68//19 57//19
f 72//19 57//19 73//19
f 73//19 57//19 74//19
f 74//19 57//19 59//19
f 64//19 75//19 65//19
f 65//19 75//19 76//19
f 76//19 75//19 77//19
f 76//19 77//19 78//19
f 78//19 79//19 76//19
f 76//19 79//19 51//19
f 51//19 79//19 80//19
f 51//19 80//19 81//19
f 82//19 83//19 79//19
f 79//19 83//19 84//19
f 79//19 84//19 85//19
f 86//19 87//19 82//19
f 82//19 87//19 88//19
f 82//19 88//19 89//19
f 90//19 91//19 86//19
f 86//19 91//19 92//19
f 86//19 92//19 93//19
f 68//19 51//19 90//19
f 90//19 51//19 81//19
f 90//19 81//19 94//19
f 89//19 95//19 82//19
f 82//19 95//19 96//19
f 82//19 96//19 97//19
f 97//19 83//19 82//19
f 85//19 98//19 79//19
f 79//19 98//19 80//19
f 94//19 99//19 90//19
f 90//19 99//19 100//19
f 90//19 100//19 91//19
f 93//19 101//19 86//19
f 86//19 101//19 102//19
f 86//19 102//19 87//19
f 66//19 103//19 60//19
f 60//19 103//19 104//19
f 60//19 104//19 105//19
f 105//19 61//19 60//19
f 63//19 106//19 55//19
f 55//19 106//19 107//19
f 55//19 107//19 108//19
f 108//19 56//19 55//19
f 52//19 51//19 68//19
f 109//24 110//24 57//24
f 57//24 110//24 55//24
f 110//19 109//19 111//19
f 111//19 109//19 112//19
f 112//19 109//19 113//19
f 113//19 109//19 114//19
f 113//19 114//19 115//19
f 109//19 116//19 114//19
f 114//19 116//19 117//19
f 117//19 116//19 118//19
f 118//19 116//19 119//19
f 115//19 120//19 113//19
f 121//27 122//27 116//27
f 116//27 122//27 90//27
f 116//27 90//27 86//27
f 122//24 123//24 90//24
f 90//24 123//24 68//24
f 57//28 68//28 109//28
f 109//28 68//28 123//28
f 109//28 123//28 124//28
f 116//25 109//25 121//25
f 121//25 109//25 124//25
f 125//29 58//29 126//29
f 126//29 58//29 56//29
f 126//30 56//30 127//30
f 127//30 56//30 108//30
f 127//31 108//31 107//31
f 125//32 128//32 58//32
f 58//32 128//32 59//32
f 59//33 128//33 129//33
f 59//33 129//33 74//33
f 74//34 129//34 130//34
f 74//34 130//34 73//34
f 73//35 130//35 131//35
f 73//35 131//35 72//35
f 72//36 131//36 132//36
f 72//36 132//36 71//36
f 71//37 132//37 133//37
f 71//37 133//37 70//37
f 70//38 133//38 134//38
f 70//38 134//38 69//38
f 69//39 134//39 135//39
f 69//39 135//39 67//39
f 67//40 135//40 136//40
f 67//40 136//40 66//40
f 66//41 136//41 137//41
f 66//41 137//41 103//41
f 103//42 137//42 138//42
f 103//42 138//42 104//42
f 104//43 138//43 139//43
f 104//43 139//43 105//43
f 105//44 139//44 140//44
f 105//44 140//44 61//44
f 61//45 140//45 141//45
f 61//45 141//45 62//45
f 62//46 141//46 142//46
f 62//46 142//46 63//46
f 63//47 142//47 143//47
f 63//47 143//47 106//47
f 106//48 143//48 144//48
f 106//48 144//48 107//48
f 107//31 144//31 127//31
f 127//19 137//19 126//19
f 126//19 137//19 136//19
f 126//19 136//19 125//19
f 125//19 136//19 135//19
f 125//19 135//19 128//19
f 128//19 135//19 134//19
f 128//19 134//19 129//19
f 129//19 134//19 133//19
f 129//19 133//19 130//19
f 130//19 133//19 132//19
f 130//19 132//19 131//19
f 137//19 127//19 138//19
f 138//19 127//19 144//19
f 138//19 144//19 139//19
f 139//19 144//19 143//19
f 139//19 143//19 140//19
f 140//19 143//19 142//19
f 140//19 142//19 141//19
f 145//29 88//29 146//29
f 146//29 88//29 87//29
f 146//30 87//30 147//30
f 147//30 87//30 102//30
f 147//31 102//31 101//31
f 145//32 148//32 88//32
f 88//32 148//32 89//32
f 89//33 148//33 149//33
f 89//33 149//33 95//33
f 95//34 149//34 150//34
f 95//34 150//34 96//34
f 96//35 150//35 151//35
f 96//35 151//35 97//35
f 97//36 151//36 152//36
f 97//36 152//36 83//36
f 83//37 152//37 153//37
f 83//37 153//37 84//37
f 84//38 153//38 154//38
f 84//38 154//38 85//38
f 85//39 154//39 155//39
f 85//39 155//39 98//39
f 98//40 155//40 156//40
f 98//40 156//40 80//40
f 80//41 156//41 157//41
f 80//41 157//41 81//41
f 81//42 157//42 158//42
f 81//42 158//42 94//42
f 94//43 158//43 159//43
f 94//43 159//43 99//43
f 99//44 159//44 160//44
f 99//44 160//44 100//44
f 100//45 160//45 161//45
f 100//45 161//45 91//45
f 91//46 161//46 162//46
f 91//46 162//46 92//46
f 92//47 162//47 163//47
f 92//47 163//47 93//47
f 93//48 163//48 164//48
f 93//48 164//48 101//48
f 101//31 164//31 147//31
f 147//19 157//19 146//19
f 146//19 157//19 156//19
f 146//19 156//19 145//19
f 145//19 156//19 155//19
f 145//19 155//19 148//19
f 148//19 155//19 154//19
f 148//19 154//19 149//19
f 149//19 154//19 153//19
f 149//19 153//19 150//19
f 150//19 153//19 152//19
f 150//19 152//19 151//19
f 157//19 147//19 158//19
f 158//19 147//19 164//19
f 158//19 164//19 159//19
f 159//19 164//19 163//19
f 159//19 163//19 160//19
f 160//19 163//19 162//19
f 160//19 162//19 161//19
f 165//49 166//49 167//49
f 167//49 166//49 168//49
f 169//50 170//50 171//50
f 171//50 170//50 172//50
f 171//50 172//50 165//50
f 165//51 167//51 171//51
f 170//52 169//52 53//52
f 53//52 169//52 173//52
f 53//52 173//52 174//52
f 53//52 49//52 170//52
f 175//53 171//53 176//53
f 176//54 171//54 167//54
f 176//55 167//55 168//55
f 176//55 168//55 177//55
f 177//55 168//55 178//55
f 177//55 178//55 179//55
f 179//55 178//55 180//55
f 180//55 178//55 181//55
f 180//56 181//56 182//56
f 182//57 183//57 180//57
f 166//58 165//58 184//58
f 184//58 165//58 172//58
f 170//59 49//59 172//59
f 172//59 49//59 50//59
f 172//59 50//59 184//59
f 174//60 185//60 53//60
f 53//60 185//60 54//60
f 178//61 186//61 181//61
f 181//61 186//61 187//61
f 47//62 54//62 188//62
f 188//62 54//62 189//62
f 189//62 54//62 190//62
f 190//62 54//62 185//62
f 181//63 187//63 182//63
f 182//64 187//64 191//64
f 182//65 191//65 188//65
f 188//64 189//64 182//64
f 182//66 189//66 183//66
f 183//66 189//66 192//66
f 192//66 189//66 190//66
f 193//28 48//28 65//28
f 65//28 48//28 52//28
f 46//7 45//7 194//7
f 194//7 45//7 195//7
f 194//7 195//7 186//7
f 178//7 168//7 186//7
f 186//7 168//7 166//7
f 186//7 166//7 194//7
f 194//7 166//7 193//7
f 193//7 166//7 184//7
f 193//7 184//7 50//7
f 50//7 48//7 193//7
f 46//27 194//27 51//27
f 51//27 194//27 76//27
f 194//24 193//24 76//24
f 76//24 193//24 65//24
f 188//67 191//67 47//67
f 47//67 191//67 45//67
f 45//67 191//67 195//67
f 192//68 196//68 183//68
f 183//68 196//68 197//68
f 183//69 197//69 180//69
f 198//68 199//68 192//68
f 192//68 199//68 196//68
f 197//70 78//70 180//70
f 180//70 78//70 179//70
f 179//70 78//70 77//70
f 77//25 75//25 179//25
f 179//25 75//25 177//25
f 78//71 197//71 79//71
f 79//71 197//71 196//71
f 200//72 176//72 64//72
f 64//72 176//72 177//72
f 64//72 177//72 75//72
f 176//73 200//73 175//73
f 175//74 200//74 201//74
f 175//74 201//74 202//74
f 202//74 201//74 203//74
f 202//74 203//74 204//74
f 201//75 200//75 60//75
f 60//75 200//75 64//75
f 186//76 195//76 187//76
f 187//76 195//76 191//76
f 171//66 175//66 169//66
f 169//66 175//66 202//66
f 169//66 202//66 173//66
f 86//24 82//24 116//24
f 116//24 82//24 119//24
f 124//7 205//7 121//7
f 121//7 205//7 206//7
f 121//7 206//7 207//7
f 123//7 208//7 124//7
f 124//7 208//7 209//7
f 124//7 209//7 210//7
f 122//7 185//7 123//7
f 123//7 185//7 174//7
f 123//7 174//7 204//7
f 204//7 174//7 173//7
f 204//7 173//7 202//7
f 121//7 207//7 122//7
f 122//7 207//7 198//7
f 122//7 198//7 185//7
f 185//7 198//7 190//7
f 190//7 198//7 192//7
f 124//7 210//7 205//7
f 205//7 210//7 211//7
f 205//7 211//7 212//7
f 204//7 208//7 123//7
f 120//77 213//77 113//77
f 113//77 213//77 214//77
f 120//24 115//24 213//24
f 213//24 115//24 215//24
f 213//24 215//24 216//24
f 216//24 215//24 217//24
f 216//24 217//24 211//24
f 211//24 217//24 212//24
f 115//78 114//78 215//78
f 215//78 114//78 218//78
f 211//79 210//79 216//79
f 216//79 210//79 219//79
f 212//80 217//80 205//80
f 205//80 217//80 220//80
f 210//81 209//81 219//81
f 219//81 209//81 112//81
f 219//81 112//81 214//81
f 214//81 112//81 113//81
f 114//82 117//82 218//82
f 218//82 117//82 220//82
f 220//82 117//82 206//82
f 220//82 206//82 205//82
f 118//33 221//33 117//33
f 117//33 221//33 207//33
f 117//83 207//83 206//83
f 207//84 221//84 198//84
f 198//84 221//84 199//84
f 209//85 208//85 112//85
f 112//48 208//48 222//48
f 112//48 222//48 111//48
f 111//27 222//27 110//27
f 110//27 222//27 203//27
f 110//27 203//27 60//27
f 60//27 203//27 201//27
f 60//27 55//27 110//27
f 208//86 204//86 222//86
f 222//86 204//86 203//86
f 118//28 119//28 221//28
f 221//28 119//28 199//28
f 199//28 119//28 79//28
f 199//28 79//28 196//28
f 119//28 82//28 79//28
f 213//27 216//27 214//27
f 214//27 216//27 219//27
f 218//28 220//28 215//28
f 215//28 220//28 217//28
