# Blender v3.2.2 OBJ File: ''
# www.blender.org
mtllib WXSA-250-M-7-Gripper.mtl
o WXSA-250-M-7-Gripper
v -14.250000 -63.000000 -9.250000
v -12.250000 -63.000000 -11.250000
v -14.250000 -63.000000 33.250000
v 12.250000 -63.000000 -11.250000
v -12.250000 -63.000000 35.250000
v 14.250000 -63.000000 -9.250000
v 14.250000 -63.000000 33.250000
v 12.250000 -63.000000 35.250000
v -8.500000 -23.000000 35.250000
v -12.250000 -22.999998 35.250000
v 12.250000 -22.999998 35.250000
v 8.500000 -23.000000 35.250000
v 8.500000 -20.000000 35.250000
v -8.500000 -20.000000 35.250000
v -14.250000 -22.999998 33.250000
v 14.250000 -22.999998 33.250000
v -14.250000 -23.000000 29.500000
v -11.000000 -23.000000 29.500000
v -14.250000 -20.000000 29.500000
v -11.000000 -20.000000 29.500000
v 8.500000 -23.000000 32.000000
v 8.500000 -20.000000 32.000000
v -8.500000 -23.000000 32.000000
v -8.500000 -20.000000 32.000000
v -10.738679 -23.000000 29.513695
v -8.513696 -23.000000 31.738680
v -9.750000 -23.000000 29.834938
v -9.983159 -23.000000 29.716135
v -8.554631 -23.000000 31.480219
v -8.622358 -23.000000 31.227459
v -8.716136 -23.000000 30.983160
v -10.227458 -23.000000 29.622358
v -10.480221 -23.000000 29.554632
v -8.834937 -23.000000 30.750000
v -8.977458 -23.000000 30.530537
v -9.142138 -23.000000 30.327173
v -9.327173 -23.000000 30.142138
v -9.530537 -23.000000 29.977457
v -12.250000 -22.999998 -11.250000
v 12.250000 -22.999998 -11.250000
v 8.513696 -20.000000 31.738680
v 8.513696 -23.000000 31.738680
v 8.554631 -20.000000 31.480219
v 8.554631 -23.000000 31.480219
v 8.622358 -20.000000 31.227459
v 8.622358 -23.000000 31.227459
v 8.716136 -20.000000 30.983160
v 8.716136 -23.000000 30.983160
v 8.834937 -20.000000 30.750000
v 8.834937 -23.000000 30.750000
v 8.977458 -20.000000 30.530537
v 8.977458 -23.000000 30.530537
v 9.142138 -20.000000 30.327173
v 9.142138 -23.000000 30.327173
v 9.327173 -20.000000 30.142138
v 9.327173 -23.000000 30.142138
v 9.530537 -20.000000 29.977457
v 9.530537 -23.000000 29.977457
v 9.750000 -20.000000 29.834938
v 9.750000 -23.000000 29.834938
v 9.983159 -20.000000 29.716135
v 9.983159 -23.000000 29.716135
v 10.227458 -20.000000 29.622358
v 10.227458 -23.000000 29.622358
v 10.480221 -20.000000 29.554632
v 10.480221 -23.000000 29.554632
v 10.738679 -20.000000 29.513695
v 10.738679 -23.000000 29.513695
v 11.000000 -20.000000 29.500000
v 11.000000 -23.000000 29.500000
v -10.738679 -20.000000 29.513695
v -10.480221 -20.000000 29.554632
v -10.227458 -20.000000 29.622358
v -9.983159 -20.000000 29.716135
v -9.750000 -20.000000 29.834938
v -9.530537 -20.000000 29.977457
v -9.327173 -20.000000 30.142138
v -9.142138 -20.000000 30.327173
v -8.977458 -20.000000 30.530537
v -8.834937 -20.000000 30.750000
v -8.716136 -20.000000 30.983160
v -8.622358 -20.000000 31.227459
v -8.554631 -20.000000 31.480219
v -8.513696 -20.000000 31.738680
v 14.250000 -23.000000 29.500000
v -14.250000 -22.999998 -9.250000
v 14.250000 -20.000000 29.500000
v -2.130982 -20.000000 -19.886148
v -4.237702 -20.000000 -19.545893
v -14.250000 -20.000000 14.033442
v -6.296175 -20.000000 -18.983103
v -8.282966 -20.000000 -18.204187
v -10.175454 -20.000000 -17.218018
v -11.952095 -20.000000 -16.035818
v 16.899925 -20.000000 10.695444
v 15.664132 -20.000000 12.435231
v 14.250000 -20.000000 14.033442
v 17.943312 -20.000000 8.833889
v 18.782412 -20.000000 6.871758
v 19.407671 -20.000000 4.831391
v 19.811972 -20.000000 2.736019
v 19.990711 -20.000000 0.609496
v 19.941853 -20.000000 -1.523965
v 19.665956 -20.000000 -3.640076
v 19.166161 -20.000000 -5.714745
v 18.448154 -20.000000 -7.724350
v 17.520115 -20.000000 -9.646012
v 16.392607 -20.000000 -11.457854
v 15.078467 -20.000000 -13.139247
v 13.592658 -20.000000 -14.671048
v 11.952095 -20.000000 -16.035818
v 10.175454 -20.000000 -17.218018
v 8.282966 -20.000000 -18.204187
v 6.296175 -20.000000 -18.983103
v 4.237702 -20.000000 -19.545893
v -13.592658 -20.000000 -14.671048
v -15.078467 -20.000000 -13.139247
v -16.392607 -20.000000 -11.457854
v 2.130982 -20.000000 -19.886148
v 0.000000 -20.000000 -20.000000
v -17.520115 -20.000000 -9.646012
v -18.448154 -20.000000 -7.724350
v -19.166161 -20.000000 -5.714745
v -16.899925 -20.000000 10.695444
v -19.941853 -20.000000 -1.523965
v -17.943312 -20.000000 8.833889
v -19.990711 -20.000000 0.609496
v -19.811972 -20.000000 2.736019
v -19.407671 -20.000000 4.831391
v -18.782412 -20.000000 6.871758
v -19.665956 -20.000000 -3.640076
v -15.664132 -20.000000 12.435231
v 14.250000 -23.000000 14.033442
v 15.664132 -23.000000 12.435231
v 16.899925 -23.000000 10.695444
v 17.943312 -23.000000 8.833889
v 18.782412 -23.000000 6.871758
v 19.407671 -23.000000 4.831391
v 19.811972 -23.000000 2.736019
v 19.990711 -23.000000 0.609496
v 19.941853 -23.000000 -1.523965
v 19.665956 -23.000000 -3.640076
v 19.166161 -23.000000 -5.714745
v 18.448154 -23.000000 -7.724350
v 17.520115 -23.000000 -9.646012
v 16.392607 -23.000000 -11.457854
v 15.078467 -23.000000 -13.139247
v 13.592658 -23.000000 -14.671048
v 11.952095 -23.000000 -16.035818
v 10.175454 -23.000000 -17.218018
v 8.282966 -23.000000 -18.204187
v 6.296175 -23.000000 -18.983103
v 4.237702 -23.000000 -19.545893
v 2.130982 -23.000000 -19.886148
v 0.000000 -23.000000 -20.000000
v -2.130982 -23.000000 -19.886148
v -4.237702 -23.000000 -19.545893
v -6.296175 -23.000000 -18.983103
v -8.282966 -23.000000 -18.204187
v -10.175454 -23.000000 -17.218018
v -11.952095 -23.000000 -16.035818
v -13.592658 -23.000000 -14.671048
v -15.078467 -23.000000 -13.139247
v -16.392607 -23.000000 -11.457854
v -17.520115 -23.000000 -9.646012
v -18.448154 -23.000000 -7.724350
v -19.166161 -23.000000 -5.714745
v -19.665956 -23.000000 -3.640076
v -19.941853 -23.000000 -1.523965
v -19.990711 -23.000000 0.609496
v -19.811972 -23.000000 2.736019
v -19.407671 -23.000000 4.831391
v -18.782412 -23.000000 6.871758
v -17.943312 -23.000000 8.833889
v -16.899925 -23.000000 10.695444
v -15.664132 -23.000000 12.435231
v -14.250000 -23.000000 14.033442
v 14.250000 -22.999998 -9.250000
vn 0.0000 -1.0000 0.0000
vn -0.0000 0.0000 1.0000
vn -0.7071 0.0000 0.7071
vn 0.7071 0.0000 0.7071
vn 1.0000 0.0000 0.0000
vn -1.0000 0.0000 0.0000
vn 0.0000 1.0000 0.0000
vn 0.0000 0.0000 -1.0000
vn 0.9986 0.0000 0.0523
vn 0.9877 0.0000 0.1564
vn 0.9659 0.0000 0.2588
vn 0.9336 0.0000 0.3584
vn 0.8910 0.0000 0.4540
vn 0.8387 0.0000 0.5446
vn 0.7771 0.0000 0.6293
vn 0.6293 0.0000 0.7771
vn 0.6293 0.0000 0.7772
vn 0.5446 0.0000 0.8387
vn 0.4540 0.0000 0.8910
vn 0.3584 0.0000 0.9336
vn 0.2588 0.0000 0.9659
vn 0.1564 0.0000 0.9877
vn 0.0523 0.0000 0.9986
vn -0.0523 0.0000 0.9986
vn -0.1564 0.0000 0.9877
vn -0.2588 0.0000 0.9659
vn -0.3584 0.0000 0.9336
vn -0.4540 0.0000 0.8910
vn -0.5446 0.0000 0.8387
vn -0.6293 0.0000 0.7772
vn -0.6293 0.0000 0.7771
vn -0.7771 0.0000 0.6293
vn -0.8387 0.0000 0.5446
vn -0.8910 0.0000 0.4540
vn -0.9336 0.0000 0.3584
vn -0.9659 0.0000 0.2588
vn -0.9877 0.0000 0.1564
vn -0.9986 0.0000 0.0523
vn -0.7071 0.0000 -0.7071
vn 0.7489 0.0000 0.6627
vn 0.8153 0.0000 0.5791
vn 0.8723 0.0000 0.4889
vn 0.9195 0.0000 0.3932
vn 0.9561 0.0000 0.2930
vn 0.9819 0.0000 0.1895
vn 0.9965 0.0000 0.0838
vn 0.9997 0.0000 -0.0229
vn 0.9916 0.0000 -0.1293
vn 0.9722 0.0000 -0.2342
vn 0.9417 0.0000 -0.3365
vn 0.9005 0.0000 -0.4349
vn 0.8490 0.0000 -0.5283
vn 0.7879 0.0000 -0.6158
vn 0.7178 0.0000 -0.6962
vn 0.6395 0.0000 -0.7688
vn 0.5540 0.0000 -0.8325
vn 0.4621 0.0000 -0.8868
vn 0.3650 0.0000 -0.9310
vn 0.2637 0.0000 -0.9646
vn 0.1594 0.0000 -0.9872
vn 0.0533 0.0000 -0.9986
vn 0.0534 0.0000 -0.9986
vn -0.0534 0.0000 -0.9986
vn -0.0533 0.0000 -0.9986
vn -0.1594 0.0000 -0.9872
vn -0.2637 0.0000 -0.9646
vn -0.3650 0.0000 -0.9310
vn -0.4621 0.0000 -0.8868
vn -0.5540 0.0000 -0.8325
vn -0.6395 0.0000 -0.7688
vn -0.7178 0.0000 -0.6962
vn -0.7879 0.0000 -0.6158
vn -0.8490 0.0000 -0.5283
vn -0.9005 0.0000 -0.4349
vn -0.9417 0.0000 -0.3365
vn -0.9722 0.0000 -0.2342
vn -0.9916 0.0000 -0.1293
vn -0.9997 0.0000 -0.0229
vn -0.9965 0.0000 0.0838
vn -0.9819 0.0000 0.1895
vn -0.9561 0.0000 0.2930
vn -0.9195 0.0000 0.3932
vn -0.8723 0.0000 0.4889
vn -0.8153 0.0000 0.5791
vn -0.7489 0.0000 0.6627
vn 0.7071 0.0000 -0.7071
usemtl Material.024
s off
f 1//1 2//1 3//1
f 2//1 4//1 3//1
f 3//1 4//1 5//1
f 6//1 7//1 4//1
f 7//1 8//1 4//1
f 4//1 8//1 5//1
f 9//2 10//2 5//2
f 8//2 11//2 12//2
f 13//2 14//2 12//2
f 14//2 9//2 12//2
f 12//2 9//2 8//2
f 9//2 5//2 8//2
f 10//3 15//3 5//3
f 15//3 3//3 5//3
f 16//4 11//4 7//4
f 11//4 8//4 7//4
f 17//2 18//2 19//2
f 18//2 20//2 19//2
f 12//5 21//5 13//5
f 21//5 22//5 13//5
f 23//6 9//6 24//6
f 9//6 14//6 24//6
f 17//7 15//7 18//7
f 15//7 10//7 18//7
f 18//7 10//7 25//7
f 9//7 23//7 10//7
f 23//7 26//7 10//7
f 27//7 28//7 10//7
f 26//7 29//7 10//7
f 29//7 30//7 10//7
f 10//7 30//7 31//7
f 28//7 32//7 10//7
f 32//7 33//7 10//7
f 10//7 33//7 25//7
f 31//7 34//7 10//7
f 34//7 35//7 10//7
f 10//7 35//7 36//7
f 36//7 37//7 10//7
f 37//7 38//7 10//7
f 10//7 38//7 27//7
f 39//8 40//8 2//8
f 40//8 4//8 2//8
f 22//9 21//9 41//9
f 21//9 42//9 41//9
f 41//10 42//10 43//10
f 42//10 44//10 43//10
f 43//11 44//11 45//11
f 44//11 46//11 45//11
f 45//12 46//12 47//12
f 46//12 48//12 47//12
f 47//13 48//13 49//13
f 48//13 50//13 49//13
f 49//14 50//14 51//14
f 50//14 52//14 51//14
f 51//15 52//15 53//15
f 52//15 54//15 53//15
f 53//4 54//4 55//4
f 54//4 56//4 55//4
f 55//16 56//16 57//16
f 56//17 58//17 57//17
f 57//18 58//18 59//18
f 58//18 60//18 59//18
f 59//19 60//19 61//19
f 60//19 62//19 61//19
f 61//20 62//20 63//20
f 62//20 64//20 63//20
f 63//21 64//21 65//21
f 64//21 66//21 65//21
f 65//22 66//22 67//22
f 66//22 68//22 67//22
f 67//23 68//23 69//23
f 68//23 70//23 69//23
f 20//24 18//24 71//24
f 18//24 25//24 71//24
f 71//25 25//25 72//25
f 25//25 33//25 72//25
f 72//26 33//26 73//26
f 33//26 32//26 73//26
f 73//27 32//27 74//27
f 32//27 28//27 74//27
f 74//28 28//28 75//28
f 28//28 27//28 75//28
f 75//29 27//29 76//29
f 27//29 38//29 76//29
f 76//30 38//30 77//30
f 38//31 37//31 77//31
f 77//3 37//3 78//3
f 37//3 36//3 78//3
f 78//32 36//32 79//32
f 36//32 35//32 79//32
f 79//33 35//33 80//33
f 35//33 34//33 80//33
f 80//34 34//34 81//34
f 34//34 31//34 81//34
f 81//35 31//35 82//35
f 31//35 30//35 82//35
f 82//36 30//36 83//36
f 30//36 29//36 83//36
f 83//37 29//37 84//37
f 29//37 26//37 84//37
f 84//38 26//38 24//38
f 26//38 23//38 24//38
f 21//7 12//7 11//7
f 16//7 85//7 11//7
f 85//7 70//7 11//7
f 70//7 68//7 11//7
f 68//7 66//7 11//7
f 11//7 66//7 64//7
f 64//7 62//7 11//7
f 62//7 60//7 11//7
f 11//7 60//7 58//7
f 58//7 56//7 11//7
f 56//7 54//7 11//7
f 11//7 54//7 52//7
f 52//7 50//7 11//7
f 50//7 48//7 11//7
f 11//7 48//7 46//7
f 46//7 44//7 11//7
f 44//7 42//7 11//7
f 11//7 42//7 21//7
f 86//39 39//39 1//39
f 39//39 2//39 1//39
f 70//2 85//2 69//2
f 85//2 87//2 69//2
f 88//7 89//7 90//7
f 89//7 91//7 90//7
f 91//7 92//7 90//7
f 92//7 93//7 90//7
f 90//7 93//7 94//7
f 95//7 90//7 96//7
f 90//7 97//7 96//7
f 95//7 98//7 90//7
f 98//7 99//7 90//7
f 90//7 99//7 100//7
f 100//7 101//7 90//7
f 101//7 102//7 90//7
f 90//7 102//7 103//7
f 103//7 104//7 90//7
f 104//7 105//7 90//7
f 90//7 105//7 106//7
f 106//7 107//7 90//7
f 107//7 108//7 90//7
f 90//7 108//7 109//7
f 71//7 90//7 20//7
f 90//7 19//7 20//7
f 75//7 76//7 97//7
f 109//7 110//7 90//7
f 110//7 111//7 90//7
f 90//7 111//7 112//7
f 112//7 113//7 90//7
f 113//7 114//7 90//7
f 90//7 114//7 115//7
f 94//7 116//7 90//7
f 116//7 117//7 90//7
f 90//7 117//7 118//7
f 97//7 57//7 59//7
f 65//7 67//7 97//7
f 67//7 69//7 97//7
f 97//7 69//7 87//7
f 115//7 119//7 90//7
f 119//7 120//7 90//7
f 90//7 120//7 88//7
f 118//7 121//7 90//7
f 121//7 122//7 90//7
f 90//7 122//7 123//7
f 76//7 77//7 97//7
f 77//7 78//7 97//7
f 97//7 78//7 79//7
f 79//7 80//7 97//7
f 80//7 81//7 97//7
f 97//7 81//7 57//7
f 124//7 125//7 126//7
f 125//7 127//7 126//7
f 127//7 128//7 126//7
f 128//7 129//7 126//7
f 126//7 129//7 130//7
f 123//7 131//7 90//7
f 131//7 125//7 90//7
f 90//7 125//7 132//7
f 125//7 124//7 132//7
f 71//7 72//7 90//7
f 72//7 73//7 90//7
f 90//7 73//7 97//7
f 73//7 74//7 97//7
f 97//7 74//7 75//7
f 59//7 61//7 97//7
f 61//7 63//7 97//7
f 97//7 63//7 65//7
f 47//7 49//7 83//7
f 49//7 51//7 83//7
f 83//7 51//7 53//7
f 81//7 82//7 57//7
f 82//7 83//7 57//7
f 57//7 83//7 55//7
f 83//7 53//7 55//7
f 24//7 14//7 13//7
f 13//7 22//7 24//7
f 22//7 41//7 24//7
f 24//7 41//7 84//7
f 41//7 43//7 84//7
f 84//7 43//7 83//7
f 43//7 45//7 83//7
f 83//7 45//7 47//7
f 97//40 133//40 134//40
f 97//40 134//40 96//40
f 134//41 135//41 96//41
f 96//41 135//41 95//41
f 135//42 136//42 95//42
f 95//42 136//42 98//42
f 136//43 137//43 98//43
f 98//43 137//43 99//43
f 137//44 138//44 99//44
f 99//44 138//44 100//44
f 138//45 139//45 100//45
f 100//45 139//45 101//45
f 139//46 140//46 101//46
f 101//46 140//46 102//46
f 140//47 141//47 102//47
f 102//47 141//47 103//47
f 141//48 142//48 103//48
f 103//48 142//48 104//48
f 142//49 143//49 104//49
f 104//49 143//49 105//49
f 143//50 144//50 105//50
f 105//50 144//50 106//50
f 144//51 145//51 106//51
f 106//51 145//51 107//51
f 145//52 146//52 107//52
f 107//52 146//52 108//52
f 146//53 147//53 108//53
f 108//53 147//53 109//53
f 147//54 148//54 109//54
f 109//54 148//54 110//54
f 148//55 149//55 110//55
f 110//55 149//55 111//55
f 149//56 150//56 111//56
f 111//56 150//56 112//56
f 150//57 151//57 112//57
f 112//57 151//57 113//57
f 151//58 152//58 113//58
f 113//58 152//58 114//58
f 152//59 153//59 114//59
f 114//59 153//59 115//59
f 153//60 154//60 115//60
f 115//60 154//60 119//60
f 154//61 155//61 119//61
f 119//62 155//62 120//62
f 155//63 156//63 120//63
f 120//64 156//64 88//64
f 156//65 157//65 88//65
f 88//65 157//65 89//65
f 157//66 158//66 89//66
f 89//66 158//66 91//66
f 158//67 159//67 91//67
f 91//67 159//67 92//67
f 159//68 160//68 92//68
f 92//68 160//68 93//68
f 160//69 161//69 93//69
f 93//69 161//69 94//69
f 161//70 162//70 94//70
f 94//70 162//70 116//70
f 162//71 163//71 116//71
f 116//71 163//71 117//71
f 163//72 164//72 117//72
f 117//72 164//72 118//72
f 164//73 165//73 118//73
f 118//73 165//73 121//73
f 165//74 166//74 121//74
f 121//74 166//74 122//74
f 166//75 167//75 122//75
f 122//75 167//75 123//75
f 167//76 168//76 123//76
f 123//76 168//76 131//76
f 168//77 169//77 131//77
f 131//77 169//77 125//77
f 169//78 170//78 125//78
f 125//78 170//78 127//78
f 170//79 171//79 127//79
f 127//79 171//79 128//79
f 171//80 172//80 128//80
f 128//80 172//80 129//80
f 172//81 173//81 129//81
f 129//81 173//81 130//81
f 173//82 174//82 130//82
f 130//82 174//82 126//82
f 174//83 175//83 126//83
f 126//83 175//83 124//83
f 175//84 176//84 124//84
f 124//84 176//84 132//84
f 176//85 177//85 132//85
f 132//85 177//85 90//85
f 3//6 15//6 1//6
f 15//6 17//6 1//6
f 86//6 1//6 177//6
f 1//6 17//6 177//6
f 177//6 17//6 90//6
f 17//6 19//6 90//6
f 145//1 144//1 178//1
f 144//1 143//1 178//1
f 178//1 143//1 142//1
f 142//1 141//1 178//1
f 141//1 140//1 178//1
f 178//1 140//1 139//1
f 139//1 138//1 178//1
f 138//1 137//1 178//1
f 178//1 137//1 136//1
f 136//1 135//1 178//1
f 135//1 134//1 178//1
f 178//1 134//1 133//1
f 145//1 178//1 146//1
f 178//1 40//1 146//1
f 146//1 40//1 147//1
f 164//1 163//1 86//1
f 163//1 39//1 86//1
f 157//1 40//1 158//1
f 40//1 159//1 158//1
f 170//1 169//1 86//1
f 169//1 168//1 86//1
f 86//1 168//1 167//1
f 167//1 166//1 86//1
f 166//1 165//1 86//1
f 86//1 165//1 164//1
f 163//1 162//1 39//1
f 162//1 161//1 39//1
f 39//1 161//1 40//1
f 161//1 160//1 40//1
f 40//1 160//1 159//1
f 151//1 150//1 40//1
f 86//1 177//1 176//1
f 176//1 175//1 86//1
f 175//1 174//1 86//1
f 86//1 174//1 173//1
f 157//1 156//1 40//1
f 156//1 155//1 40//1
f 40//1 155//1 154//1
f 150//1 149//1 40//1
f 149//1 148//1 40//1
f 40//1 148//1 147//1
f 173//1 172//1 86//1
f 172//1 171//1 86//1
f 86//1 171//1 170//1
f 154//1 153//1 40//1
f 153//1 152//1 40//1
f 40//1 152//1 151//1
f 85//5 16//5 7//5
f 6//5 178//5 133//5
f 97//5 87//5 133//5
f 87//5 85//5 133//5
f 133//5 85//5 6//5
f 85//5 7//5 6//5
f 40//86 178//86 4//86
f 178//86 6//86 4//86
